<svg xmlns="http://www.w3.org/2000/svg" fill="none" viewBox="0 0 55.647999999999996 34.63529411764706" style="max-height: 500px" width="55.647999999999996" height="34.63529411764706">
<path fill="black" d="M72.3706 31.4074V5.54168H61.4072V0.429932H89.6309V5.54168H78.517V31.4074H72.3706Z"/>
<path fill="black" d="M109.305 24.3283C108.175 29.1484 104.436 32.0005 98.8789 32.0005C92.1922 32.0005 87.3721 27.7208 87.3721 20.8867C87.3721 14.0526 92.2413 9.13428 98.7315 9.13428C105.811 9.13428 109.452 14.0526 109.452 19.9534V22.0687H93.1746C93.3711 25.2647 95.8794 27.5274 99.0754 27.5274C101.977 27.5274 103.696 26.2993 104.534 23.8402L109.305 24.3314V24.3283ZM103.699 18.3784C103.503 15.8701 101.977 13.4601 98.6825 13.4601C95.3882 13.4601 93.8132 15.6736 93.2728 18.3784H103.696H103.699Z"/>
<path fill="black" d="M127.794 15.5262C126.664 14.8876 125.678 14.5929 124.254 14.5929C121.205 14.5929 119.139 16.7573 119.139 20.6901V31.411H113.238V9.72365H119.139V13.8529C119.925 11.3938 122.188 9.1311 125.187 9.1311C126.513 9.1311 127.597 9.47496 128.236 10.0153L127.794 15.5231V15.5262Z"/>
<path fill="black" d="M157.988 9.1311C163.839 9.1311 165.709 13.1622 165.709 17.884V31.4079H159.808V19.066C159.808 15.7227 158.774 13.8038 155.875 13.8038C152.977 13.8038 151.304 16.1647 151.304 19.8028V31.4079H145.403V19.066C145.403 15.7227 144.319 13.8038 141.47 13.8038C138.621 13.8038 136.896 16.1647 136.896 19.8028V31.4079H130.995V9.72365H136.896V13.2635C137.977 10.8043 140.436 9.13418 143.73 9.13418C147.565 9.13418 149.729 10.9548 150.665 13.6104C151.844 11.053 154.451 9.13418 157.994 9.13418"/>
<path fill="black" d="M176.329 9.7229H170.428V31.4071H176.329V9.7229Z"/>
<path fill="black" d="M176.66 3.30677C176.66 5.13349 175.18 6.61328 173.353 6.61328C171.527 6.61328 170.047 5.13349 170.047 3.30677C170.047 1.48005 171.527 0.000244141 173.353 0.000244141C175.18 0.000244141 176.66 1.48005 176.66 3.30677Z"/>
<path fill="black" d="M187.197 9.7229H181.296V31.4071H187.197V9.7229Z"/>
<path fill="black" d="M187.529 3.30677C187.529 5.13349 186.049 6.61328 184.223 6.61328C182.396 6.61328 180.916 5.13349 180.916 3.30677C180.916 1.48005 182.396 0.000244141 184.223 0.000244141C186.049 0.000244141 187.529 1.48005 187.529 3.30677Z"/>
<path fill="#34A873" d="M0.235446 3.26045C0.112641 3.25431 0.0727477 3.10695 0.177132 3.04862C0.536337 2.85213 0.867944 2.66792 1.20873 2.49599C2.04073 2.07538 2.87579 1.65171 3.72315 1.25259C4.65032 0.816638 5.63885 0.540323 6.6612 0.365326C7.4533 0.230241 8.25463 0.16884 9.06514 0.18419C10.6002 0.208751 12.0708 0.500415 13.4862 1.04076C14.8554 1.56268 16.0466 2.32407 17.1427 3.23896C18.2356 4.15386 18.4198 5.46172 17.6369 6.60074C16.9799 7.55861 16.3966 8.5564 15.7765 9.53577C15.1563 10.5151 14.5331 11.4914 13.916 12.4739C13.7901 12.6734 13.7133 12.698 13.5751 12.48C12.9151 11.4331 12.2396 10.3923 11.5796 9.34235C11.2019 8.74061 10.7568 8.18184 10.2717 7.65378C9.05284 6.33056 7.58531 5.2898 5.89367 4.52534C4.41694 3.85913 2.86039 3.44466 1.21787 3.29729C0.901649 3.26966 0.582371 3.27273 0.235446 3.25738"/>
<path fill="#34A873" d="M15.7944 16.1188C15.6961 15.9683 15.6961 15.7811 15.7944 15.6276L22.997 4.22208C24.4706 1.87958 27.1938 0.439697 30.135 0.439697H51.3465C51.457 0.439697 51.5277 0.55022 51.4693 0.639253L47.8466 6.29441C47.7913 6.38037 47.69 6.43256 47.5825 6.43256L32.8674 6.41414C30.6907 6.408 28.6798 7.47948 27.6022 9.21716L19.9636 21.5406C19.8163 21.7801 19.4417 21.7801 19.2944 21.5406L15.7975 16.1188H15.7944Z"/>
<path fill="#2776B2" d="M21.8643 25.4204C21.7353 25.2208 21.7323 24.9752 21.8581 24.7726L28.7291 13.6311C30.2673 11.1566 33.1317 9.62769 36.2325 9.62769H45.4337C45.5503 9.62769 45.6271 9.74435 45.5657 9.83952L41.9368 15.5407C41.8386 15.7004 41.6513 15.7986 41.4517 15.7986H38.3356C36.3799 15.7986 34.5746 16.7626 33.6045 18.3223L25.9752 30.7347C25.8279 30.9742 25.4533 30.9773 25.2998 30.7409L21.8674 25.4204H21.8643Z"/>
</svg>